<?xml version="1.0" encoding="UTF-8" standalone="no"?>
<!-- Created with Inkscape (http://www.inkscape.org/) -->

<svg
   version="1.1"
   id="svg2"
   width="3280"
   height="3280"
   viewBox="0 0 3280 3280"
   sodipodi:docname="shutterstock_2234016549.eps"
   xmlns:inkscape="http://www.inkscape.org/namespaces/inkscape"
   xmlns:sodipodi="http://sodipodi.sourceforge.net/DTD/sodipodi-0.dtd"
   xmlns="http://www.w3.org/2000/svg"
   xmlns:svg="http://www.w3.org/2000/svg">
  <defs
     id="defs6" />
  <sodipodi:namedview
     id="namedview4"
     pagecolor="#ffffff"
     bordercolor="#000000"
     borderopacity="0.25"
     inkscape:showpageshadow="2"
     inkscape:pageopacity="0.0"
     inkscape:pagecheckerboard="0"
     inkscape:deskcolor="#d1d1d1" />
  <g
     id="g8"
     inkscape:groupmode="layer"
     inkscape:label="ink_ext_XXXXXX"
     transform="matrix(1.3333333,0,0,-1.3333333,0,3280)">
    <g
       id="g10"
       transform="scale(0.1)">
      <path
         d="M 24600,0 H 0 V 24600 H 24600 V 0"
         style="fill:#f9f1e4;fill-opacity:1;fill-rule:nonzero;stroke:none"
         id="path12" />
      <path
         d="m 22110.6,13091.4 c 0,-2029.7 -1645.4,-3675 -3675.1,-3675 -2029.6,0 -3675,1645.3 -3675,3675 0,2029.7 1645.4,3675.1 3675,3675.1 2029.7,0 3675.1,-1645.4 3675.1,-3675.1"
         style="fill:#ffb000;fill-opacity:1;fill-rule:nonzero;stroke:none"
         id="path14" />
      <path
         d="m 6520.36,11764.6 c 170.01,612.7 273.42,1243.6 310.38,1878.4 36.82,632.2 6.13,1267.4 -87.69,1893.7 -23.42,156.3 -50.92,312 -82.48,466.8 -24.88,122.1 -46.54,245.7 -96.9,360.3 -69.69,158.7 -195.53,292.1 -350.74,369.6 -301.17,150.4 -684.48,104 -931.06,-129.2 -146.48,-138.5 -212.45,-320.1 -243.19,-515.1 -49.9,-316.5 -57.73,-638.9 -22.48,-957.5 66.79,-603.6 277.65,-1182.2 544.3,-1724.5 266.54,-542.1 592.21,-1051.9 915.83,-1561 321.81,-506.3 642.5,-1015.8 900.48,-1558.4 127.46,-268.1 238.24,-544.2 323.89,-828.5 87.26,-289.7 165.13,-597.6 137.26,-902.5 -22.97,-251.3 -144.32,-504.6 -369.22,-634 -232.13,-133.6 -493.15,-53.9 -693.63,99.6 -198.16,151.7 -352.32,364.3 -472.52,580.9 -114.58,206.6 -196.26,429.3 -248.38,659.5 -107.21,473.6 -85.77,971.8 24.13,1442.8 112.88,483.7 317.99,945.3 601.57,1353.2 309.8,445.6 707.14,830 1132.38,1164.6 433.99,341.4 906.31,632.3 1387.59,901.7 244.96,137.1 493.01,268.6 742.03,398.1 241.49,125.7 481.59,258.8 738.29,351.4 236.8,85.4 503.5,149.1 753,81.9 218.3,-58.9 388.5,-219.5 457.9,-434.6 66.5,-205.7 50.6,-437.2 -34,-635.6 -94.5,-221.9 -280.4,-392.1 -489,-506.3 -519.4,-284.3 -1131.1,-224.2 -1695.25,-151.7 -306.64,39.5 -612.55,77.1 -921.68,89.9 -287.97,11.9 -576.63,7.3 -864.09,-13.4 -576.33,-41.5 -1148.4,-145.9 -1701.91,-311.8 -555.48,-166.5 -1093.61,-394.5 -1598.48,-679.9 -247.02,-139.6 -492.44,-289.6 -714.22,-467.3 -211.75,-169.6 -400.25,-381.3 -487.02,-642.7 -79.62,-239.8 -73.5,-525.8 71.01,-740.7 131.91,-196.1 348.7,-298.7 580.56,-315.1 229.27,-16.1 466.81,49.6 663.54,166.1 230.23,136.3 408.3,348.1 564.91,561.1 158.53,215.5 297.77,445.5 468.55,651.9 147.78,178.7 315.07,340.9 496.97,484.5 357.27,282.1 774.06,489.2 1210.06,617.5 442.43,130.3 906.99,180.2 1366.91,143.9 452.67,-35.8 900.77,-159.3 1302.14,-372.9 215.8,-114.8 408.9,-264.7 559.3,-458.9 132.5,-171.1 242.6,-389.5 219.3,-611.8 -24.1,-228.5 -202.6,-397.2 -416.2,-458.2 -254.3,-72.6 -516.41,-8.9 -748.25,105 -280.24,137.8 -536.78,326.6 -797.26,497.4 -283.06,185.7 -566.12,371.4 -849.18,557.1 -561.02,368 -1122.03,736 -1683.05,1104 -277.96,182.3 -555.66,365 -833.92,546.9 -247.33,161.7 -498.55,319.1 -771.87,433.5 -249.14,104.3 -521.39,172.4 -793.06,151.4 -230.88,-17.8 -463.21,-89 -653.6,-223.2 -189.87,-133.9 -336.1,-327.7 -383.04,-558.2 -52.01,-255.5 11.56,-522 145.36,-742.8 296.99,-490.1 880.84,-674.6 1420.94,-728.1 538.85,-53.3 1090.95,18.3 1601.51,197.2 514.96,180.5 992.33,468.7 1383.15,850.5 387.45,378.4 685.21,843.5 879.5,1348.3 187.56,487.3 274.33,1014.6 247.13,1536.3 -2.16,41.4 -31.93,70.9 -73.32,73.3 -305.43,17.9 -589.23,-139.5 -787.95,-363.1 -227.26,-255.7 -337.51,-576.6 -384.07,-911.3 -51.08,-367.2 -38.44,-739 -70.05,-1107.8 -28.76,-335.6 -85.92,-668.3 -168.56,-994.7 -164.62,-650.2 -431,-1273 -787.08,-1841.4 -177.6,-283.5 -377.15,-552.9 -597.82,-804.4 -208.09,-237.2 -445.56,-509.9 -762.64,-594.5 -135.24,-36 -281.28,-19.9 -390.09,74.3 -95.58,82.8 -140,203.3 -158.98,325.4 -42.31,272.3 25.98,557.7 79.13,823.8 108.92,545.2 259.19,1129.3 616.91,1569.7 175.06,215.5 400.61,389.3 664.32,481.3 326.85,113.9 683.2,103.3 1015.1,16.6 702.25,-183.6 1248.13,-696.3 1760.25,-1182.9 119.55,-113.6 233.9,-234 320.11,-375.4 73.59,-120.8 134.55,-268.2 97.96,-411.4 -69.63,-272.6 -400.42,-319 -627.37,-228.3 -300.22,120.2 -468.19,451.2 -621.41,714.2 -206,353.6 -412,707.2 -618,1060.8 -412,707.1 -824,1414.3 -1236,2121.5 -100.61,172.7 -200.14,346.1 -302.18,518 -86.97,146.5 -179.24,290.6 -290.01,420.5 -210.85,247.3 -519.3,441 -855.99,415.7 -281.7,-21.1 -513.92,-202.9 -600.86,-471 -80.88,-249.4 -39.78,-532.2 46.29,-774.5 96.45,-271.4 261.5,-505.2 454.85,-716.5 204.2,-223.2 442.85,-416.1 702.02,-572 513.94,-309 1121.86,-478 1722.94,-440.1 595.4,37.5 1150.52,283.4 1582.35,694.5 420.46,400.3 714.19,940.1 790.63,1517.7 78.31,591.9 -85.38,1287 -574.24,1669.6 -246.31,192.8 -564.71,279.5 -874.17,223.8 -290.1,-52.3 -532.36,-251 -645.74,-521.9 -108.98,-260.3 -95.75,-553.9 -43.58,-825.9 58.13,-303 173.03,-588.4 294.89,-870.4 324.53,-751 649.06,-1502 973.59,-2253 162.26,-375.5 324.52,-751 486.79,-1126.5 146.74,-339.6 325.91,-700.7 296.2,-1081.1 -20.54,-262.9 -192.45,-555.2 -462.43,-621.1 -329.66,-80.6 -613.42,219.9 -830.53,420.9 -297.18,275.2 -594.37,550.4 -891.55,825.5 -258.18,239.1 -522.87,480.4 -719.57,774.8 -189.38,283.4 -312.66,625.5 -270.78,970.3 33.17,273 186.45,517.4 413.73,670.6 214.48,144.6 472.74,215.5 727.22,247.1 276.82,34.3 557.96,28.4 835.2,2.3 565.99,-53.3 1178.42,-138.7 1722.4,78.9 256.94,102.7 486.73,277.1 625.03,520.4 130.6,229.6 163.6,497.1 125.6,755.8 -78.7,535.6 -464.8,1006 -979.07,1175.4 -606.61,199.8 -1287.66,14.9 -1796.26,-344.4 -556.94,-393.5 -922.16,-998.1 -1185.05,-1615.2 -287.3,-674.4 -465.64,-1388.4 -742.47,-2066.8 -251.07,-615.2 -607.35,-1277.6 -1216.04,-1602.8 -288.5,-154.1 -637.87,-220.5 -958.66,-140.5 -277.07,69.1 -504.28,248.2 -647.98,493.4 -137.57,234.7 -196.57,511.3 -181.43,782 16.37,292.5 132.62,568.9 302,805.5 391.48,546.7 1030.63,840.4 1665.99,997 365.01,90 737.85,142.3 1109.82,193.8 371.57,51.5 750.17,101.9 1125.13,56.9 322.97,-38.8 627.57,-162.1 852.92,-401.6 194.14,-206.4 317.33,-491.9 271.63,-778.2 -37.25,-233.4 -100.01,-477.6 -242.85,-670.6 -43.94,-59.4 -106.85,-119 -167.47,-156.6 -66.6,-41.3 -119.79,-61.3 -202.31,-75.5 -4.62,-0.8 -28.34,-4.1 -13.64,-2.3 -8.9,-1.1 -17.82,-2 -26.76,-2.8 -19.13,-1.6 -38.32,-2.4 -57.51,-2.5 -37.99,-0.3 -76.05,2.2 -113.72,7.1 13.09,-1.7 -10.76,1.7 -15.39,2.5 -9.36,1.5 -18.69,3.2 -28,5 -21.22,4 -42.31,8.8 -63.25,14.1 -40.54,10.3 -80.52,22.7 -119.88,36.8 -149.8,53.8 -305.98,141.9 -445.64,238.5 -124.6,86.3 -238.73,180.4 -351.69,291.2 -46.19,45.3 -90.81,92.3 -132.67,141.6 -9.66,11.4 -19.13,23 -28.49,34.6 -1.54,1.9 -15.08,19.3 -8.08,10.2 7.05,-9.2 -5.82,7.8 -7.23,9.7 -13.8,18.8 -27.14,37.9 -39.44,57.8 -49.58,80.1 -176.48,6.5 -126.62,-74 66.01,-106.6 154.18,-201 243.58,-288.2 120.91,-118 253.05,-225.4 392.65,-320.5 277.56,-189 622.88,-355.6 967.55,-302.4 430.54,66.5 627.1,506.5 706.27,887.7 31.89,153.5 47.54,302.7 19.66,458.2 -25.92,144.6 -86.2,284.3 -167.39,406.3 -175.23,263.4 -441.1,455 -742.42,548.1 -367.21,113.5 -759.07,101.3 -1136.76,59.5 -377.53,-41.8 -756.41,-95.4 -1129.77,-165.4 -681.5,-127.7 -1365.36,-358 -1869.5,-854.6 -223.54,-220.2 -402.07,-488.1 -498.64,-787.9 -87.8,-272.6 -92.65,-571.6 -23.51,-848.9 66.89,-268.3 208.7,-525.6 421.31,-705.6 250.28,-211.8 578.27,-301.5 903,-275.5 702.97,56.5 1228.08,574.5 1570.02,1153.4 385.83,653.3 589.89,1391.3 833.98,2104 221.92,647.9 489.16,1306.1 949.05,1824.9 423.21,477.5 1033.4,818.5 1685.19,796.8 283.97,-9.4 572.97,-93.8 798.54,-270.8 202.07,-158.5 357.4,-379.4 442.4,-621.5 83,-236.5 103.3,-496.7 24.5,-737.2 -81.9,-249.9 -274.83,-447.1 -505.58,-566.6 -248.46,-128.7 -534.84,-169.9 -811.43,-179.2 -300.01,-10 -599.59,17.7 -897.55,49.7 -280.36,30.1 -564.23,41.1 -845.26,13.2 -270.74,-26.9 -543.74,-87.6 -782.99,-221.6 -239.11,-134 -426.95,-344.6 -518.29,-604.5 -117.05,-332.9 -57.57,-703.7 84.31,-1018.9 147.11,-326.8 395.1,-599.3 650.06,-845.9 282.37,-273.1 575.17,-535.8 863.38,-802.7 142.99,-132.4 284.08,-267.3 429.76,-396.7 127.8,-113.6 264.71,-220.5 425.14,-283.6 146.55,-57.6 313.77,-66.8 461.58,-8.3 140.16,55.5 253.35,156.1 338.67,279.2 198.42,286.3 191.76,642.7 99.41,966 -53.08,185.8 -130.97,363.4 -207.49,540.5 -81.13,187.8 -162.26,375.5 -243.39,563.3 -329.37,762.2 -658.74,1524.4 -988.12,2286.6 -145.84,337.5 -306.52,672.2 -429.34,1018.9 -96.5,272.5 -172.33,562.8 -159.51,854.1 11.68,265.6 120.99,526.1 354.39,669.9 253.52,156.1 590.3,139.5 849.52,5.5 554.53,-286.4 745.28,-1004.1 687.32,-1583.1 -57.16,-570.9 -351.59,-1107.8 -765.95,-1498.5 -430.64,-405.9 -990.31,-635.8 -1582.19,-647.3 -603.24,-11.8 -1199.42,186.9 -1694.83,526.8 -248.24,170.4 -471.63,379 -657.1,616.3 -168.61,215.7 -292.02,460.2 -339.86,731.4 -39.74,225.3 -21.75,491.6 149.28,661.5 221.67,220.4 568.18,172.4 812.89,19 294.02,-184.3 466.44,-511.8 635.93,-802.8 209.07,-358.8 418.15,-717.7 627.22,-1076.6 416.61,-715.1 833.22,-1430.2 1249.83,-2145.3 97.03,-166.6 191.94,-334.6 292.05,-499.3 86.89,-142.9 182.7,-284.7 304.89,-400.2 213.07,-201.3 523.76,-309 806.56,-191.5 136.34,56.7 239.96,165.1 285.86,306.3 48.78,150 13.82,309.1 -50.89,448.2 -70.95,152.6 -181.02,287.4 -297.18,407.8 -122.35,126.8 -254.24,245.7 -384.15,364.6 -534.08,489.1 -1141.8,939.1 -1884.02,1016.5 -340.61,35.5 -690.05,-20.1 -991.8,-185.9 -244.23,-134.1 -444.46,-333.6 -600.3,-563 -326.84,-481 -466.56,-1071 -570.97,-1634.8 -51.31,-277.1 -108.78,-577.3 -26.68,-854.3 38.85,-131.1 112.55,-246.4 224.78,-326 130.52,-92.7 294.2,-112.9 448.18,-79.8 331.6,71.2 587.53,336.5 805.62,578.4 227.17,252 434.33,522.6 619.11,807.2 370.3,570.3 651.46,1200 829.82,1856.1 89.81,330.3 152.77,667.6 189.41,1008 39.3,365.1 29.15,733 65.68,1098.2 32.15,321.4 111.99,649.3 319.01,905.3 177.97,220.1 432.11,383.9 723.75,366.8 -24.44,24.4 -48.88,48.9 -73.32,73.3 28.01,-537.2 -67.95,-1074.9 -271.68,-1572.4 -203.64,-497.2 -519.44,-950.1 -919.42,-1309.1 -400.26,-359.3 -884.91,-622.2 -1400.53,-773.1 -517.27,-151.3 -1075.81,-195.2 -1607.64,-98.4 -271.21,49.4 -538.48,138.8 -763.31,302.1 -205.43,149.1 -360.43,368.6 -418.49,616.9 -52.91,226.3 -8.66,468.7 140.96,649.7 141.61,171.4 346.22,277.7 560.15,328.3 546.09,129.3 1073.69,-151.2 1521.11,-435.1 556.61,-353.3 1103.71,-722.4 1654.95,-1083.9 563.57,-369.7 1127.14,-739.4 1690.7,-1109.1 268.36,-176 532.66,-362.2 809.74,-524.3 239.64,-140.2 508.16,-254.9 791.04,-244.3 247.3,9.3 491,107.6 638.8,312.5 135.7,188.3 149,430.1 76.7,645.6 -158.9,473.4 -590.1,789 -1029.57,981.5 -425.67,186.3 -885.68,284.1 -1349.92,296.4 -464.79,12.4 -933.76,-60 -1373.51,-210.8 -439.14,-150.6 -850.61,-378.4 -1204.94,-678.9 -177.13,-150.3 -337.65,-318.8 -479.48,-502.8 -167.42,-217.1 -309.02,-452.9 -478,-668.8 -155.67,-199 -337.87,-388 -573.02,-490.2 -197.28,-85.8 -431.3,-117.5 -638.59,-50.1 -215.9,70.3 -360.71,262.9 -381.72,487.8 -24.32,260.3 82.06,506.7 251.18,700.1 183.3,209.6 419.88,364.7 654.54,510.7 244.75,152.2 498.32,290.2 758.83,413.6 522.44,247.3 1073.71,433.7 1638.11,558.1 561.95,123.9 1137.06,184.6 1712.51,179.9 294.24,-2.3 587.68,-22.9 879.73,-58.5 325.38,-39.6 650.35,-91.8 978.65,-98.1 523.8,-10.1 1106.5,117.3 1461.4,533.9 294,345.1 364.6,900.4 73.2,1270.5 -157,199.5 -404.3,299 -654.1,304.7 -271,6.2 -536.6,-82.4 -782.5,-188.1 -251.8,-108.2 -493.31,-242.1 -735.84,-369.4 -246.44,-129.3 -491.55,-261.3 -733.17,-399.5 -480.67,-274.9 -948.11,-575.3 -1377.69,-925.6 -418.98,-341.7 -805.97,-735.1 -1105.25,-1187.2 -275.61,-416.3 -474.85,-887.4 -580.6,-1375.4 -104.3,-481.3 -119.58,-985.7 -9.3,-1467.5 53.42,-233.4 137.76,-460.7 252.31,-671.1 119.68,-219.7 273.76,-433.9 465.79,-596.1 205.15,-173.2 471.11,-293.9 742.82,-223.5 243.25,63.1 432.04,264.3 528.17,490.2 121.85,286.4 97.01,609.4 35.03,907 -60.98,292.8 -154.61,579 -266.86,856 -225.77,557 -527.99,1077.9 -845.51,1586.8 -319.57,512.2 -655.09,1014.9 -945.97,1544.5 -286.63,521.8 -530.29,1071.5 -656.38,1655.6 -66.6,308.5 -94.04,623.7 -78.34,939.1 7.58,152.2 22.27,306.6 54.62,455.7 18.44,85.1 50.53,165 98.96,237.5 173.25,259.2 526.6,340 806.57,223.3 139.7,-58.2 257.17,-171.5 323.56,-314.8 49.51,-106.8 66.84,-228.7 90.15,-343.1 31.57,-154.8 59.06,-310.5 82.48,-466.8 93.51,-624.3 119.48,-1259.3 80.38,-1889.2 -37.88,-610.3 -139.55,-1215.6 -303.07,-1804.9 -25.27,-91.1 116.16,-129.9 141.4,-39 v 0"
         style="fill:#212121;fill-opacity:1;fill-rule:nonzero;stroke:none"
         id="path16" />
      <path
         d="m 19863.2,15432.4 c -198.8,345.2 -496.1,626.1 -841.1,822.8 -350.8,200 -748.1,315.4 -1150.7,341.1 -430.4,27.6 -867.1,-53.6 -1268.2,-208.7 -415.2,-160.5 -797,-396.7 -1135.3,-685.3 -309.6,-264.2 -578.8,-574.4 -801.2,-915 -220.5,-337.6 -394.4,-706.3 -516.9,-1090.4 -121.2,-380.3 -191.1,-778.3 -203.2,-1177.4 -12,-396.7 34.6,-797.2 144.3,-1178.9 109.6,-381.7 283.4,-744.9 508.9,-1071.6 225.4,-326.6 499.5,-619.1 811.4,-864.3 316.1,-248.5 666.1,-449.3 1041.9,-592.8 383.6,-146.5 791.2,-226.7 1201.5,-241.3 420.4,-15 844.4,39 1248.7,154.8 406.3,116.4 796.4,295.7 1146.8,532.4 341,230.4 641.3,513.2 891.8,839.5 241.9,314.9 432.6,666.8 572.4,1038.1 140.1,372.1 225.7,764.3 256,1160.7 30.3,395.3 2.6,795.8 -84.9,1182.7 -87.1,384.8 -237,755.1 -439.7,1093.6 -200.2,334.1 -450.8,639 -737.7,902.3 -287.5,263.9 -611.7,488.9 -960.8,663.5 -350.1,175.1 -725.1,302.1 -1111.3,367.4 -393.3,66.5 -792.2,69 -1186.7,10.9 -392.8,-57.9 -774.9,-177.6 -1134.1,-346.4 -359.4,-169 -694.2,-390.2 -991.8,-653.1 -296.8,-262.1 -556,-568.7 -761.6,-907.3 -226.7,-373.4 -386.1,-787.9 -474.3,-1215.5 -91.2,-441.8 -109.9,-898.5 -52.8,-1346.1 57.3,-448.1 185.9,-884.7 389.5,-1288.5 180.6,-358.4 420.2,-687.8 701,-974.4 282.2,-288 608.5,-535 963,-727.4 352.5,-191.3 734.6,-330.9 1129.2,-404.1 413.8,-76.8 836.6,-81.3 1252.8,-20.8 413.4,60.2 816.4,187.8 1190.4,373.7 374.7,186.3 720.6,434.9 1012.7,735 292.4,300.5 531.7,653.1 707.1,1033.8 177.3,384.6 291.4,794.5 338.6,1215.3 46.6,415.4 23.7,839 -71.2,1246.2 -90.7,389.4 -247.9,764.1 -457.1,1104.6 -208.3,339.3 -468.9,647.8 -770,908.4 -291.1,252 -618.6,460.8 -972.9,611.9 -36.4,15.5 -78.5,10.9 -100.3,-26.3 -18,-30.8 -10.3,-84.7 26.3,-100.3 353.2,-150.6 681.4,-357.9 969.4,-611.8 289.8,-255.6 539.8,-554.6 739,-885.6 198,-329.1 344.7,-687.7 429.4,-1062.5 89,-393.7 105.6,-802.2 58.7,-1202.8 -47,-401 -161.5,-797.2 -334.6,-1161.9 -173.7,-366.1 -405.9,-703.7 -691.7,-991.4 -285.6,-287.3 -620.7,-522 -984.7,-699.3 -361.8,-176.4 -753.5,-294.2 -1152.2,-349 -394.4,-54.2 -800.2,-45.3 -1190.9,31.9 -381.9,75.3 -749.9,212.2 -1089.8,401.3 -338.9,188.6 -648.6,426.8 -917.9,705.8 -269.2,278.8 -495.9,597.3 -668.2,944.6 -192.9,388.8 -315.9,814.7 -365.3,1245.8 -49.5,432.9 -29.6,874.1 63.5,1299.9 89.5,409.6 244.5,803.2 465,1160 202,327 455.6,620 745.3,872.2 288.6,251.3 614.2,460 961.4,620.9 348.1,161.2 721,271.5 1100.9,325.1 372.3,52.6 754.9,45.6 1124.9,-21 369.4,-66.6 728.2,-188.5 1062.6,-358.6 337.1,-171.5 649.8,-389.4 926.6,-647 275.1,-256.1 514.3,-549.3 705.5,-872.9 192.9,-326.4 333.4,-680.4 415.9,-1050.4 83.6,-374.7 106.7,-761.5 76.3,-1143.9 -30.3,-381.2 -116.7,-758 -251.9,-1115.6 -134.7,-356.2 -322,-694.9 -554.7,-996.5 -240.6,-311.9 -532.8,-583.4 -860.5,-801.7 -338.6,-225.6 -711.8,-396.5 -1103.2,-507.3 -393,-111.3 -801.9,-161.7 -1210.2,-145.8 -395.5,15.3 -786.1,95.9 -1155.6,237.7 -353.7,135.7 -688.6,328.3 -985.4,563.7 -300.8,238.6 -567.9,521 -784.7,838.1 -216.2,316.4 -382.8,664.7 -487.5,1033.5 -104.7,368.6 -147.8,751.9 -135.7,1134.6 12.3,386.6 81.7,770 199.6,1138.2 118.1,368.6 285.9,720.5 497.1,1044.9 215.2,330.6 476.8,629.5 776.6,886 322.2,275.7 690.7,504.7 1087.5,656.4 388.7,148.7 806.4,226.1 1223,198.5 382.1,-25.2 759.9,-139.4 1090.8,-332.2 315.7,-183.9 585.7,-441.3 768.6,-758.7 47.1,-81.8 173.9,-8 126.6,74 v 0"
         style="fill:#212121;fill-opacity:1;fill-rule:nonzero;stroke:none"
         id="path18" />
      <path
         d="m 7191.54,12417.1 c 347.43,333.4 704.64,664.5 1116.06,918.3 396.12,244.4 844.43,404.7 1315.26,368.2 487.74,-37.7 932.64,-275.9 1344.34,-523 214,-128.5 423.7,-264.2 639.6,-389.4 214.1,-124.1 438.7,-232 672.2,-314.7 450.7,-159.7 959.2,-222.6 1407.7,-22.6 53.3,23.8 104.7,51.4 154.3,82.1 80.2,49.5 6.6,176.4 -74,126.6 -408.2,-252.2 -902.5,-218.6 -1344,-79.9 -475.2,149.3 -887.3,423.8 -1309,680.5 -420.5,255.9 -867.7,504.7 -1362.41,572.8 -242.86,33.4 -487.86,21.9 -726.69,-33.8 -230.42,-53.7 -451.23,-147.2 -657.68,-261.8 -426.42,-236.8 -797.59,-563.4 -1150.49,-896.7 -43.14,-40.8 -86.06,-81.8 -128.88,-122.9 -68.23,-65.4 35.55,-169 103.69,-103.7 v 0"
         style="fill:#212121;fill-opacity:1;fill-rule:nonzero;stroke:none"
         id="path20" />
    </g>
  </g>
</svg>
